# xmcd
#
# Track frame offsets:
#	150
#	29420
#	45103
#	106286
#	142738
#	212242
#	248057
#	307065
#
# Disc length: 4370 seconds
#
# Revision: 1
# Processed by: cddbd v1.5.2PL0 Copyright (c) Steve Scherf et al.
# Submitted via: audiograbber 1.83.01
#
DISCID=64111008
DTITLE=Grateful Dead - 78-01-08 Golden Hall, Community Concourse, San Diego CA
DYEAR=1900
DGENRE=
TTITLE0=Good Lovin'
TTITLE1="Happy Birthday Uncle Bobo"
TTITLE2=Estimated Prophet
TTITLE3=Drums
TTITLE4=The Other One
TTITLE5=Truckin'
TTITLE6=Sugar Magnolia
TTITLE7=Johnny B Goode
EXTD=
EXTT0=
EXTT1=
EXTT2=
EXTT3=
EXTT4=
EXTT5=
EXTT6=
EXTT7=
PLAYORDER=
